<svg id="Layer_2" data-name="Layer 2" xmlns="http://www.w3.org/2000/svg" width="250" height="106" viewBox="0 0 250 106"><defs><style>.cls-1{fill:#231f20;}.cls-2{fill:#cf1f25;}</style></defs><path class="cls-1" d="M74.2492,70.6958h-.38V67.883h1.3c.4667,0,.925.157.925.7566a.693.693,0,0,1-.3913.6731c.1607.065.3234.134.3377.5278l.0247.5093c.0053.1564.0221.2154.1391.2832v.0628h-.4658a3.3966,3.3966,0,0,1-.0679-.7056c0-.2322-.0449-.5014-.5015-.5014h-.92Zm0-1.5318H75.13c.2754,0,.5726-.0706.5726-.4868,0-.4325-.3149-.47-.502-.47h-.9515Z"/><path class="cls-1" d="M74.9231,72.1193a2.8445,2.8445,0,1,1,2.8462-2.8431A2.849,2.849,0,0,1,74.9231,72.1193Zm0-5.343a2.4977,2.4977,0,1,0,2.4988,2.5A2.5006,2.5006,0,0,0,74.9231,66.7763Z"/><path class="cls-2" d="M38.144,18.8176A12.2389,12.2389,0,1,0,50.3848,31.0551,12.2393,12.2393,0,0,0,38.144,18.8176Z"/><path class="cls-1" d="M23.175,38.0118c-3.323-5.4631-3.8665-8.857.866-14.2147,0,0,12.4458-13.4977,12.9725-14.03-1.6992-2.0232-8.044-2.3406-11.5052.8122-4.4978,4.0989-10.8418,9.4161-14.5708,14.1063-3.7891,4.7485-3.4141,9.1542.0768,13.5892,2.5717,3.2868,5.0152,5.8131,7.0672,9.6086,2.2256,4.1141,2.1771,7.761-.6848,11.5509A49.5357,49.5357,0,0,1,4.4508,72.1132l18.428-.046,6.464-12.1825c2.3813-3.9094,3.1443-8.599.4529-13.1192C28.9636,45.3706,24.8027,40.6838,23.175,38.0118Z"/><path class="cls-1" d="M53.0325,38.0118c3.3246-5.4631,3.87-8.857-.8633-14.2147,0,0-12.4441-13.4977-12.9772-14.03,1.7053-2.0232,8.0459-2.3406,11.5052.8122,4.4983,4.0989,10.8445,9.4161,14.5781,14.1063,3.7817,4.7485,3.4113,9.1542-.0811,13.5892-2.5748,3.2868-5.0121,5.8131-7.0675,9.6086-2.2219,4.1141-2.174,7.761.6947,11.5509A49.3717,49.3717,0,0,0,71.7619,72.1132L53.33,72.0672,46.8691,59.8847c-2.3848-3.9094-3.1465-8.599-.4481-13.1192C47.2469,45.3706,51.4033,40.6838,53.0325,38.0118Z"/><path class="cls-1" d="M105.5316,14.7758l-1.9134,2.8858a5.5651,5.5651,0,0,0-3.3716-1.1852,4.3747,4.3747,0,0,0-3.5843,1.8229c-.82,1.2143-1.1843,2.9766-1.1843,5.4367,0,2.8846.2426,4.4955.8809,5.6493a4.3855,4.3855,0,0,0,4.07,2.3686,5.4692,5.4692,0,0,0,3.19-1.0326c.1211-.09.2729-.2126.4245-.3343l1.9441,2.6732A9.6435,9.6435,0,0,1,93.23,32.119a11.0151,11.0151,0,0,1-2.5512-7.5635,13.5136,13.5136,0,0,1,1.4275-6.56,9.0683,9.0683,0,0,1,8.079-4.89A8.6307,8.6307,0,0,1,105.5316,14.7758Z"/><path class="cls-1" d="M107.4423,19.7268l3.645-.972a4.9971,4.9971,0,0,1,.6377,2.2177,7.0257,7.0257,0,0,1,2.3086-1.9749,3.61,3.61,0,0,1,1.336-.2428,3.1368,3.1368,0,0,1,1.5192.3342l-1.1243,3.5836a2.3,2.3,0,0,0-1.1843-.3035,3.2445,3.2445,0,0,0-2.4906,1.3063V34.67h-4.07V24.2829A14.0871,14.0871,0,0,0,107.4423,19.7268Z"/><path class="cls-1" d="M129.0275,30.54l1.5792,2.4292a8.9214,8.9214,0,0,1-5.8619,2.1566c-4.4649,0-7.35-3.1584-7.35-8.0488,0-2.7937.5772-4.6469,1.9441-6.1652a6.1141,6.1141,0,0,1,4.89-2.0961,6.3625,6.3625,0,0,1,4.4949,1.6406c1.4275,1.4572,2.0652,3.5532,2.0652,6.8036v.9412h-8.99v.1211c0,2.3995,1.1843,3.7664,3.28,3.7664A6.08,6.08,0,0,0,129.0275,30.54Zm-7.1681-5.3156h4.7078v-.1817a4.009,4.009,0,0,0-.486-2.3389,1.9691,1.9691,0,0,0-1.792-.9114c-1.549,0-2.43,1.2148-2.43,3.3715Z"/><path class="cls-1" d="M146.3231,12.8318V28.99c0,3.827.3037,5.0727.5769,5.6795h-3.6444a2.7649,2.7649,0,0,1-.2434-.9114,5.2127,5.2127,0,0,1-3.5838,1.3063c-3.9484,0-6.4391-3.0681-6.4391-7.8967,0-4.86,2.703-8.2,6.6516-8.2a4.1912,4.1912,0,0,1,2.7641.88,18.8817,18.8817,0,0,1-.1214-2.3081V12.194Zm-3.979,10.3876a3.3933,3.3933,0,0,0-2.2171-1.0029c-1.8221,0-2.6121,1.52-2.6121,4.9824,0,3.3407.6983,4.4339,2.8249,4.4339a2.9132,2.9132,0,0,0,2.0043-1.0018Z"/><path class="cls-1" d="M151.97,12.3152a2.4835,2.4835,0,0,1,2.46,2.5212,2.5058,2.5058,0,1,1-5.0116,0A2.5413,2.5413,0,0,1,151.97,12.3152Zm-2.0954,7.0773,4.07-.6377V34.67h-4.07Z"/><path class="cls-1" d="M165.6488,19.089l-1.0323,2.703h-2.6121V29.72c0,1.9737.3643,2.49,1.7615,2.49a5.3209,5.3209,0,0,0,1.4577-.3035l.5163,2.4293a8.5307,8.5307,0,0,1-3.3106.6994c-2.0652,0-3.7356-.9114-4.1912-2.2783a5.701,5.701,0,0,1-.2735-2.3995V21.792h-1.5489V19.15h1.5489a27.3752,27.3752,0,0,1,.152-3.7058l4.1307-1.0326a45.9031,45.9031,0,0,0-.2429,4.6778Z"/><path class="cls-1" d="M174.4545,13.5609h4.3432V27.4418a4.5847,4.5847,0,0,0,.3646,2.5206,3,3,0,0,0,2.8855,1.4572c1.8528,0,3.0372-.9109,3.22-2.46a13.353,13.353,0,0,0,.0609-1.883V13.5609h4.313V27.7761a8.5282,8.5282,0,0,1-.3343,3.31c-.5466,1.67-2.6118,3.9784-7.1682,3.9784-3.2192,0-5.5581-.972-6.7733-2.8241a6.2873,6.2873,0,0,1-.9111-3.9795Z"/><path class="cls-1" d="M191.856,19.7565l3.6141-1.0326a3.9823,3.9823,0,0,1,.5775,1.944,14.0562,14.0562,0,0,1,1.7917-1.1543,6.42,6.42,0,0,1,2.7946-.668,3.8668,3.8668,0,0,1,3.7358,2.248,6.2794,6.2794,0,0,1,.3034,2.2172V34.67h-4.0089V24.5555c0-1.7607-.304-2.2778-1.3669-2.2778a4.7471,4.7471,0,0,0-2.8249,1.3977V34.67h-4.07V23.4017A11.2151,11.2151,0,0,0,191.856,19.7565Z"/><path class="cls-1" d="M209.5313,12.3152a2.4834,2.4834,0,0,1,2.46,2.5212,2.5058,2.5058,0,1,1-5.0115,0A2.5413,2.5413,0,0,1,209.5313,12.3152Zm-2.0958,7.0773,4.07-.6377V34.67h-4.07Z"/><path class="cls-1" d="M221.0929,18.8153a6.5179,6.5179,0,0,1,5.285,2.3389,8.0782,8.0782,0,0,1,1.792,5.68,8.44,8.44,0,0,1-1.9438,6.0138,6.3521,6.3521,0,0,1-5.1332,2.1567c-4.2218,0-6.9856-3.1584-6.9856-8.0494C214.1073,22.0657,216.9014,18.8153,221.0929,18.8153Zm.0609,3.0075a2.1951,2.1951,0,0,0-2.0958,1.5789,11.0828,11.0828,0,0,0-.4254,3.4629,10.9893,10.9893,0,0,0,.5165,3.9178,2.2513,2.2513,0,0,0,2.0652,1.2761c1.7618,0,2.5215-1.58,2.5215-5.2545,0-2.096-.2737-3.4629-.82-4.1612A2.1776,2.1776,0,0,0,221.1538,21.8228Z"/><path class="cls-1" d="M229.8991,19.7565l3.6144-1.0326a3.9821,3.9821,0,0,1,.5774,1.944,14.0419,14.0419,0,0,1,1.7918-1.1543,6.419,6.419,0,0,1,2.7943-.668,3.8675,3.8675,0,0,1,3.7361,2.248,6.2794,6.2794,0,0,1,.3034,2.2172V34.67h-4.0092V24.5555c0-1.7607-.304-2.2778-1.3669-2.2778a4.7472,4.7472,0,0,0-2.8246,1.3977V34.67h-4.07V23.4017A11.2148,11.2148,0,0,0,229.8991,19.7565Z"/><path class="cls-1" d="M91.8633,43.7014h4.7078l4.04,8.4442a40.8016,40.8016,0,0,1,2.3086,5.983c-.1517-1.6406-.3035-4.3435-.3343-5.8013l-.0912-8.6259h4.04V64.81H102.099l-3.6141-8.079c-1.154-2.6429-2.46-5.619-2.8552-6.9247.1517,1.7309.1826,4.2212.2129,5.983L95.964,64.81H91.8633Z"/><path class="cls-1" d="M109.4778,51.1124a11.5692,11.5692,0,0,1,2.5209-1.276,10.5276,10.5276,0,0,1,4.2524-.9115c2.6117,0,4.404.972,5.0112,2.7041a7.8744,7.8744,0,0,1,.2732,2.7938l-.0912,5.2247V59.92c0,1.6715.2737,2.3092,1.458,3.1892L120.746,65.6a4.3506,4.3506,0,0,1-2.1872-1.8829,6.6257,6.6257,0,0,1-.9414.8195,5.3681,5.3681,0,0,1-3.1284.8509c-3.4623,0-5.3455-1.7618-5.3455-4.86,0-3.6453,2.5209-5.3454,7.4716-5.3454.304,0,.486,0,.9111.03v-.6377c0-1.7309-.3337-2.3081-1.8223-2.3081a8.5716,8.5716,0,0,0-4.4952,1.7612Zm7.9878,6.8944h-.1823c-2.8246,0-3.7963.5167-3.7963,2.3687a1.8446,1.8446,0,0,0,1.792,2.0354,2.9471,2.9471,0,0,0,2.1261-1.0634Z"/><path class="cls-1" d="M132.65,49.23l-1.0326,2.7029h-2.612v7.927c0,1.9744.3643,2.4909,1.7614,2.4909a5.34,5.34,0,0,0,1.4578-.3034l.5163,2.4292a8.5283,8.5283,0,0,1-3.3106.6983c-2.0653,0-3.7356-.9108-4.1913-2.2772a5.6971,5.6971,0,0,1-.2735-2.3994V51.9324h-1.5489V49.29h1.5489a27.3574,27.3574,0,0,1,.1521-3.7058l4.1306-1.0326a45.8856,45.8856,0,0,0-.2428,4.6778Z"/><path class="cls-1" d="M137.2956,42.4557a2.4831,2.4831,0,0,1,2.46,2.5211,2.5058,2.5058,0,1,1-5.0115,0A2.5408,2.5408,0,0,1,137.2956,42.4557ZM135.2,49.5329l4.07-.6377V64.81H135.2Z"/><path class="cls-1" d="M148.7969,48.9558a6.5177,6.5177,0,0,1,5.285,2.3389,8.0781,8.0781,0,0,1,1.792,5.68,8.44,8.44,0,0,1-1.9438,6.0138,6.3505,6.3505,0,0,1-5.1332,2.1566c-4.2221,0-6.9856-3.1584-6.9856-8.0487S144.6056,48.9558,148.7969,48.9558Zm.0606,3.0075a2.1947,2.1947,0,0,0-2.0955,1.5789,11.0693,11.0693,0,0,0-.4257,3.4618,10.9945,10.9945,0,0,0,.5165,3.9189,2.2513,2.2513,0,0,0,2.0655,1.2755c1.7618,0,2.5212-1.5789,2.5212-5.255,0-2.0949-.2734-3.4618-.82-4.1607A2.1789,2.1789,0,0,0,148.8575,51.9633Z"/><path class="cls-1" d="M158.0589,49.8969l3.6141-1.0325a3.983,3.983,0,0,1,.5773,1.944,14.0407,14.0407,0,0,1,1.7918-1.1543,6.42,6.42,0,0,1,2.7944-.668,3.8678,3.8678,0,0,1,3.7361,2.248,6.281,6.281,0,0,1,.3034,2.2178V64.81h-4.009V54.6965c0-1.7612-.3037-2.2783-1.3669-2.2783a4.7435,4.7435,0,0,0-2.8243,1.3977V64.81h-4.07V53.5422A11.2185,11.2185,0,0,0,158.0589,49.8969Z"/><path class="cls-1" d="M173.6075,51.1124a11.5714,11.5714,0,0,1,2.5209-1.276,10.5283,10.5283,0,0,1,4.2524-.9115c2.6118,0,4.4041.972,5.0113,2.7041a7.8776,7.8776,0,0,1,.2731,2.7938l-.0908,5.2247V59.92c0,1.6715.2734,2.3092,1.4577,3.1892L184.8758,65.6a4.3478,4.3478,0,0,1-2.1869-1.8829,6.6384,6.6384,0,0,1-.9418.8195,5.3677,5.3677,0,0,1-3.1283.8509c-3.4624,0-5.3456-1.7618-5.3456-4.86,0-3.6453,2.5209-5.3454,7.4716-5.3454.304,0,.486,0,.9112.03v-.6377c0-1.7309-.3337-2.3081-1.8223-2.3081a8.5715,8.5715,0,0,0-4.4953,1.7612Zm7.9879,6.8944h-.182c-2.8249,0-3.7967.5167-3.7967,2.3687a1.8446,1.8446,0,0,0,1.7918,2.0354,2.9469,2.9469,0,0,0,2.1263-1.0634Z"/><path class="cls-1" d="M192.8317,42.3345a23.1744,23.1744,0,0,1,.2123,4.04V58.4931c0,2.6727.0308,3.0372.2737,3.4624a.9307.9307,0,0,0,.82.4257,1.3248,1.3248,0,0,0,.4557-.0617l.6984,2.43a6.785,6.785,0,0,1-2.43.4245,3.65,3.65,0,0,1-3.6144-2.1257c-.3037-.79-.3646-1.2755-.3646-3.4927V47.9529a39.89,39.89,0,0,0-.2131-4.6767Z"/><path class="cls-1" d="M96.2674,73.11h4.5864l6.6519,21.17H102.95l-1.4883-5.0116H95.2651L93.7768,94.28H89.3424Zm.03,12.6352h4.1309s-.6982-2.2172-1.1539-4.2527c-.2129-.972-.8507-3.7355-.8507-3.7355s-.6074,2.4909-1.0022,4.07C97.0269,83.3461,96.7534,84.3478,96.2977,85.7456Z"/><path class="cls-1" d="M120.928,79.7621l-1.3363,2.7337a8.2159,8.2159,0,0,0-3.8272-1.124c-1.1843,0-1.9741.6074-1.9741,1.5189,0,.79.5163,1.2143,1.9438,1.5789l1.8832.4862a4.846,4.846,0,0,1,3.0983,1.7618,4.1145,4.1145,0,0,1,.85,2.6424c0,3.2189-2.6727,5.4058-6.6516,5.4058a13.8218,13.8218,0,0,1-6.2871-1.7915l1.4581-2.9766a11.3644,11.3644,0,0,0,5.163,1.7617,1.9037,1.9037,0,0,0,2.0658-1.7617c0-1.0635-.7595-1.61-2.4-1.9132l-1.8223-.3343a5.488,5.488,0,0,1-2.855-1.5794,4.7115,4.7115,0,0,1-.8811-2.7949c0-3.0373,2.3994-5.0716,6.0144-5.0716A11.68,11.68,0,0,1,120.928,79.7621Z"/><path class="cls-1" d="M135.2834,79.7621l-1.3366,2.7337a8.2139,8.2139,0,0,0-3.827-1.124c-1.1843,0-1.9743.6074-1.9743,1.5189,0,.79.5163,1.2143,1.9441,1.5789l1.8831.4862a4.846,4.846,0,0,1,3.0984,1.7618,4.1145,4.1145,0,0,1,.85,2.6424c0,3.2189-2.6726,5.4058-6.6512,5.4058a13.8189,13.8189,0,0,1-6.2873-1.7915l1.4577-2.9766a11.3656,11.3656,0,0,0,5.1633,1.7617,1.9038,1.9038,0,0,0,2.0657-1.7617c0-1.0635-.76-1.61-2.3994-1.9132l-1.8227-.3343a5.49,5.49,0,0,1-2.8552-1.5794,4.7141,4.7141,0,0,1-.8809-2.7949c0-3.0373,2.4-5.0716,6.0142-5.0716A11.6811,11.6811,0,0,1,135.2834,79.7621Z"/><path class="cls-1" d="M144.9649,78.426a6.5165,6.5165,0,0,1,5.285,2.3389,8.0758,8.0758,0,0,1,1.792,5.679,8.4407,8.4407,0,0,1-1.9438,6.0139,6.35,6.35,0,0,1-5.1332,2.1565c-4.2221,0-6.9859-3.1583-6.9859-8.0487S140.7731,78.426,144.9649,78.426Zm.0606,3.0064a2.195,2.195,0,0,0-2.0955,1.5794,11.0719,11.0719,0,0,0-.4255,3.4624,10.9852,10.9852,0,0,0,.5164,3.9184,2.2511,2.2511,0,0,0,2.0652,1.2754c1.762,0,2.5214-1.5789,2.5214-5.255,0-2.0949-.2737-3.4618-.82-4.16A2.1783,2.1783,0,0,0,145.0255,81.4324Z"/><path class="cls-1" d="M165.683,80.0655l-1.9743,2.6732a3.9175,3.9175,0,0,0-2.46-1.2149c-1.8226,0-2.6426,1.5789-2.6426,5.2236,0,2.0354.2432,3.25.79,3.9189a2.3518,2.3518,0,0,0,1.8227.88,4.1613,4.1613,0,0,0,2.7943-1.2749l.2428-.2132,1.8526,2.46a6.3917,6.3917,0,0,1-1.4274,1.1543,7.2689,7.2689,0,0,1-3.7967.9721c-4.2826,0-6.7732-2.9767-6.7732-8.0185,0-3.5841,1.3668-5.9533,3.1895-7.1985a7.3688,7.3688,0,0,1,3.8572-1.1542,7.1743,7.1743,0,0,1,3.0069.6982A6.9181,6.9181,0,0,1,165.683,80.0655Z"/><path class="cls-1" d="M170.3221,71.9259a2.4829,2.4829,0,0,1,2.46,2.5206,2.5058,2.5058,0,1,1-5.0115,0A2.5407,2.5407,0,0,1,170.3221,71.9259Zm-2.0955,7.0767,4.07-.6377V94.28h-4.07Z"/><path class="cls-1" d="M175.3841,80.5815a11.6014,11.6014,0,0,1,2.521-1.2755,10.5266,10.5266,0,0,1,4.2523-.9108c2.6121,0,4.4041.972,5.0116,2.7028a7.8871,7.8871,0,0,1,.2734,2.7944l-.0914,5.2247V89.39c0,1.6714.2734,2.3092,1.458,3.1892L186.6526,95.07a4.3522,4.3522,0,0,1-2.1871-1.8835,6.6934,6.6934,0,0,1-.9415.82,5.3721,5.3721,0,0,1-3.1283.85c-3.4624,0-5.3456-1.7617-5.3456-4.86,0-3.6452,2.5209-5.3453,7.4716-5.3453.3038,0,.4861,0,.9112.03v-.6378c0-1.7309-.3338-2.308-1.8224-2.308a8.57,8.57,0,0,0-4.4952,1.7612Zm7.9882,6.895H183.19c-2.8246,0-3.7966.5166-3.7966,2.3686a1.8446,1.8446,0,0,0,1.7923,2.0355,2.9471,2.9471,0,0,0,2.1258-1.0635Z"/><path class="cls-1" d="M198.9883,78.6986l-1.0329,2.7035h-2.6115v7.927c0,1.9749.3641,2.4909,1.7612,2.4909a5.3458,5.3458,0,0,0,1.4581-.3034l.5162,2.4292a8.5205,8.5205,0,0,1-3.3106.6989c-2.0655,0-3.7358-.9115-4.1912-2.2773a5.6986,5.6986,0,0,1-.2738-2.3994V81.4021h-1.5489V78.76h1.5489a27.3135,27.3135,0,0,1,.1523-3.7058l4.13-1.0326a45.9721,45.9721,0,0,0-.2423,4.6767Z"/><path class="cls-1" d="M203.3178,71.9259a2.4828,2.4828,0,0,1,2.46,2.5206,2.5057,2.5057,0,1,1-5.0113,0A2.5407,2.5407,0,0,1,203.3178,71.9259Zm-2.0958,7.0767,4.07-.6377V94.28h-4.07Z"/><path class="cls-1" d="M214.9711,78.426a6.5165,6.5165,0,0,1,5.285,2.3389,8.0758,8.0758,0,0,1,1.792,5.679,8.4407,8.4407,0,0,1-1.9438,6.0139,6.3509,6.3509,0,0,1-5.1332,2.1565c-4.2221,0-6.9856-3.1583-6.9856-8.0487S210.78,78.426,214.9711,78.426Zm.0606,3.0064a2.1955,2.1955,0,0,0-2.0955,1.5794,11.0719,11.0719,0,0,0-.4255,3.4624,10.99,10.99,0,0,0,.5164,3.9184,2.2511,2.2511,0,0,0,2.0654,1.2754c1.7617,0,2.5212-1.5789,2.5212-5.255,0-2.0949-.2734-3.4618-.82-4.16A2.1783,2.1783,0,0,0,215.0317,81.4324Z"/><path class="cls-1" d="M223.929,79.3672l3.6144-1.0326a3.9779,3.9779,0,0,1,.5772,1.9434,13.7756,13.7756,0,0,1,1.792-1.1537,6.4031,6.4031,0,0,1,2.7943-.6685,3.8686,3.8686,0,0,1,3.7361,2.248,6.28,6.28,0,0,1,.3035,2.2166V94.28h-4.0093V84.1661c0-1.7617-.304-2.2783-1.3668-2.2783a4.7452,4.7452,0,0,0-2.8247,1.3977V94.28h-4.07V83.0118A11.2113,11.2113,0,0,0,223.929,79.3672Z"/><path class="cls-1" d="M17.9118,93.795a11.56,11.56,0,0,1-4.5289.7622c-5.87,0-8.9425-3.3966-8.9425-7.8559,0-5.107,3.9975-8.2722,9.2424-8.2722a10.2645,10.2645,0,0,1,4.4137.7856L17.3109,82.08a8.9261,8.9261,0,0,0-3.4662-.67c-3.1424,0-5.522,1.7559-5.522,5.0836,0,2.9115,1.9635,5.06,5.5448,5.06a9.6978,9.6978,0,0,0,3.4434-.6Z"/><path class="cls-1" d="M25.2136,78.7062v8.5726c0,2.8191,1.155,4.4131,3.28,4.4131,2.1721,0,3.3282-1.525,3.3282-4.4131V78.7062h3.6737v8.4569c0,5.0607-2.7273,7.3941-7.1638,7.3941-4.1583,0-6.7933-2.1487-6.7933-7.4631V78.7062Z"/><path class="cls-1" d="M39.4934,94.28V78.7062h4.5528l3.5118,5.5916a42.4315,42.4315,0,0,1,2.8425,5.592h.0457a52.181,52.181,0,0,1-.2771-6.2847V78.7062h3.4434V94.28H49.6149L45.94,88.2491a57.1528,57.1528,0,0,1-3.0728-5.7763l-.0924.0229c.1152,2.2182.1391,4.3669.1391,6.7009V94.28Z"/><path class="cls-1" d="M61.375,90.1441,60.1276,94.28H56.2692l5.1982-15.574h4.945L71.8659,94.28h-4.09l-1.3636-4.1361Zm4.4365-2.7268L64.6793,84.09c-.3-.9013-.6009-1.9412-.878-2.8191h-.0456c-.2314.8779-.4857,1.9178-.7628,2.8191l-1.04,3.3271Z"/></svg>