<svg xmlns="http://www.w3.org/2000/svg" viewBox="0 0 733.67 162.06"><defs><style>.cls-1{fill:#003976;}.cls-2{fill:#fff;}.cls-3{fill:#830b2c;}</style></defs><g id="Layer_2" data-name="Layer 2"><g id="Content"><path class="cls-1" d="M70.72,32.05c-.18,9.85-.89,18.26-6.89,26.68C57.2,68,47.27,72,36,72,14.77,72,0,57.56,0,36.35,0,14.41,14.86,0,36.61,0,50.49,0,61.23,6.27,67.05,18.89l-16.65,7C48,19.43,42.88,15.13,35.81,15.13c-11.55,0-17.55,11-17.55,21.31,0,10.47,6.27,21.12,17.82,21.12,7.61,0,13.43-3.94,14.14-11.72H35.9V32.05Z"/><path class="cls-1" d="M134.9,69.74H113.06l-16.56-26h-.18v26H78.77V2.24H105c13.34,0,23.46,6.35,23.46,20.77,0,9.31-5.19,17.37-14.77,19.07ZM96.32,32.5H98c5.73,0,12.18-1.08,12.18-8.42S103.75,15.67,98,15.67h-1.7Z"/><path class="cls-1" d="M157.19,17.1V28.38H177V43.24H157.19V54.88h20.86V69.74H139.64V2.24h38.41V17.1Z"/><path class="cls-1" d="M206.06,58l-4.65,11.73H182.79l26-67.5h19.16l25.42,67.5H234.62L230.23,58ZM218.33,23.1h-.18L210.9,44.58h14.59Z"/><path class="cls-1" d="M280.93,69.74H263.38V17.1h-14.5V2.24h46.55V17.1h-14.5Z"/><path class="cls-1" d="M321.05,17.1V28.38h19.79V43.24H321.05V54.88h20.86V69.74H303.5V2.24h38.41V17.1Z"/><path class="cls-1" d="M408.43,69.74H386.59L370,43.78h-.17v26H352.3V2.24h26.23C391.87,2.24,402,8.59,402,23c0,9.31-5.19,17.37-14.77,19.07ZM369.85,32.5h1.7c5.73,0,12.17-1.08,12.17-8.42s-6.44-8.41-12.17-8.41h-1.7Z"/><path class="cls-1" d="M469.09,69.74H451.55V17.1H437V2.24h46.55V17.1h-14.5Z"/><path class="cls-1" d="M509.22,17.1V28.38H529V43.24H509.22V54.88h20.86V69.74H491.67V2.24h38.41V17.1Z"/><path class="cls-1" d="M539.64,2.24h21.58L571.51,19.7l10.3-17.46h21.57L581.81,33.66l25,36.08H585.66l-14.15-22L556,69.74H534.8l26.42-36.08Z"/><path class="cls-1" d="M634.28,58.07l-4.65,11.72H611l26-67.5h19.16l25.42,67.5H662.84l-4.39-11.72Zm12.27-34.92h-.18l-7.25,21.49h14.59Z"/><path class="cls-1" d="M723.91,19.66a18.43,18.43,0,0,0-11.64-4.48c-3.22,0-7.52,1.88-7.52,5.64,0,3.94,4.74,5.46,7.79,6.45L717,28.61c9.4,2.78,16.65,7.52,16.65,18.44,0,6.72-1.61,13.61-7,18.18s-12.35,6.35-19.15,6.35a41.63,41.63,0,0,1-23.73-7.7l7.52-14.14c4.39,3.85,9.58,7,15.58,7,4.12,0,8.5-2.06,8.5-6.8,0-4.92-6.89-6.63-10.65-7.7-11-3.13-18.26-6-18.26-19.07C686.49,9.45,696.25.5,709.76.5a46.19,46.19,0,0,1,21.13,5.55Z"/><path class="cls-1" d="M169.5,99.67A9.52,9.52,0,0,0,161.8,96c-5.37,0-9,4.12-9,9.35a8.75,8.75,0,0,0,9.13,9.17,10.07,10.07,0,0,0,7.56-3.58v10.52a25,25,0,0,1-7.74,1.56,18.8,18.8,0,0,1-12.66-5,16.51,16.51,0,0,1-5.41-12.75,17.65,17.65,0,0,1,5-12.35,18.28,18.28,0,0,1,12.84-5.45,20.65,20.65,0,0,1,8,1.69Z"/><path class="cls-1" d="M204.09,122.08H193.18l-8.28-13h-.09v13H176V88.35h13.11c6.67,0,11.72,3.18,11.72,10.38,0,4.65-2.59,8.67-7.38,9.53Zm-19.28-18.61h.85c2.86,0,6.08-.54,6.08-4.21s-3.22-4.2-6.08-4.2h-.85Z"/><path class="cls-1" d="M216.36,95.77v5.64h9.89v7.43h-9.89v5.81h10.43v7.43H207.6V88.35h19.19v7.42Z"/><path class="cls-1" d="M233.33,88.35h12.44a16.87,16.87,0,1,1,0,33.73H233.33Zm8.77,26.3h2c5.23,0,9.7-2.86,9.7-9.44,0-6-4-9.44-9.61-9.44H242.1Z"/><path class="cls-1" d="M276.87,122.08h-8.76V88.35h8.76Z"/><path class="cls-1" d="M297.15,122.08h-8.77V95.77h-7.25V88.35h23.26v7.42h-7.24Z"/><path class="cls-1" d="M451.69,88.34v19c0,4.34-.18,8.64-3.53,11.9C445.34,122,440.91,123,437,123s-8.37-1-11.19-3.76c-3.35-3.26-3.53-7.56-3.53-11.9v-19H431v17.75c0,4.39.31,9.18,6,9.18s5.95-4.79,5.95-9.18V88.34Z"/><path class="cls-1" d="M457.26,88.34H466L482.08,109h.09V88.34h8.77v33.72h-8.77L466.11,101.4H466v20.66h-8.77Z"/><path class="cls-1" d="M505.46,122.06h-8.77V88.34h8.77Z"/><path class="cls-1" d="M546.8,104.57c0,10.92-7.83,18.61-18.66,18.61s-18.65-7.69-18.65-18.61c0-10.19,9-17.35,18.65-17.35S546.8,94.38,546.8,104.57Zm-28.19.05c0,5.81,4.3,10.06,9.53,10.06s9.53-4.25,9.53-10.06c0-4.65-4.29-8.9-9.53-8.9S518.61,100,518.61,104.62Z"/><path class="cls-1" d="M550.89,88.34h8.77L575.71,109h.1V88.34h8.76v33.72h-8.76L559.75,101.4h-.09v20.66h-8.77Z"/><polygon class="cls-2" points="357.52 133.14 359.57 149.01 360.17 155.23 405.87 111.39 396.55 87.2 394.81 86.82 392.59 86.82 390.43 86.82 388.18 87.06 385.3 87.95 382.43 89.74 379.18 93.08 376.02 96.57 371.93 101.09 366.94 103.2 362.89 102.02 359.88 101.09 357.52 133.14"/><path class="cls-1" d="M358.69,91.61l6.91,44.92a10.55,10.55,0,0,1,.16,3.43c-11.52-13.64-21.92,13.38-32.66,7L317.41,84.13C329.73,94.39,347.7,77.65,358.69,91.61Z"/><path class="cls-3" d="M397.68,85.87,416.23,136c-19.6-8.7-28.35,15.78-43.58,24.94-6.47,3-11.13-.68-12.17-4-2.25-8.47,6.94-10.16,7.41-17.6,0-3.83-.93-7.22-1.4-10.71,16.27,2.93,19.16-25.39,38-17.62l-8.37-22.4a15.58,15.58,0,0,0-6.88-.74c-10.48,1.67-14.5,19.53-26,16.71L362.9,102c11.57,2.67,14.85-17.69,28.33-17.12A32.22,32.22,0,0,1,397.68,85.87Z"/><path class="cls-3" d="M364.62,142.34c-2,3.32-2.71,2.86-5.05,6.67,0,0-1.34-10.68-1.34-10.77A8.11,8.11,0,0,1,364.62,142.34Z"/><polygon class="cls-2" points="348.56 97.6 344.87 107.64 332.92 107.61 342.51 114.07 338.64 124.65 348.51 118.17 358.45 124.77 354.65 114.21 364.34 107.64 352.29 107.64 348.56 97.6 348.56 97.6"/></g></g></svg>