<svg xmlns="http://www.w3.org/2000/svg" viewBox="0 0 122.79 69.54"><defs><style>.cls-1{fill:#3a57a6;}.cls-1,.cls-2{fill-rule:evenodd;}.cls-2{fill:#f7971d;}</style></defs><g id="Layer_2" data-name="Layer 2"><g id="Content"><path class="cls-1" d="M105.13,46.26c-.17,1.37-.39,2.68-.67,3.94a10.57,10.57,0,0,0-4.42-.86c-1.14.07-2.49.51-2.5,1.54s1.84,1.81,2.88,2.3c1.87.9,3.88,2.09,4,4.52a5.72,5.72,0,0,1-1.73,4.42c-2.62,2.48-8.44,2.74-12.4,1.16.24-1.32.47-2.67.67-4a11.62,11.62,0,0,0,6,1.25c1.05-.13,2.34-.75,2.31-1.83,0-1.32-2.51-2.1-3.75-2.79-1.44-.79-3.09-2.11-3.18-4.13a5.29,5.29,0,0,1,1.16-3.46C95.55,45.73,100.81,44.83,105.13,46.26Z"/><polygon class="cls-1" points="58.01 20.51 63.31 20.51 60.05 41.08 54.75 41.08 58.01 20.51 58.01 20.51"/><path class="cls-1" d="M39.64,20.51h8.12c5.16,0,6.5,3,5.94,6.53a6.9,6.9,0,0,1-5.37,5.65l5.14,8.39H46.82L43,33l-1.28,8.08h-5.3l3.26-20.57ZM44.3,24.6l-.82,5.16H45a3.25,3.25,0,0,0,3.13-2.58h0a2.19,2.19,0,0,0-2.28-2.58Z"/><polygon class="cls-1" points="82.22 20.51 87.52 20.51 84.26 41.08 78.96 41.08 82.22 20.51 82.22 20.51"/><polygon class="cls-1" points="91.55 20.51 103.19 20.51 102.48 24.98 96.14 24.98 95.58 28.5 101.61 28.5 100.9 32.97 94.87 32.97 94.3 36.61 100.63 36.61 99.92 41.08 88.28 41.08 91.55 20.51 91.55 20.51"/><polygon class="cls-1" points="24.85 20.51 36.49 20.51 35.78 24.98 29.44 24.98 28.89 28.5 34.91 28.5 34.2 32.97 28.18 32.97 27.6 36.61 33.94 36.61 33.23 41.08 21.59 41.08 24.85 20.51 24.85 20.51"/><polygon class="cls-1" points="67.33 20.51 79.09 20.51 78.39 24.98 71.92 24.98 71.35 28.5 77.24 28.5 76.53 32.97 70.64 32.97 69.35 41.08 64.06 41.08 67.33 20.51 67.33 20.51"/><path class="cls-1" d="M106.31,20.51h6.91c8.23,0,10.1,6.23,9.46,10.29-.93,5.81-6.1,10.28-12.73,10.28H103l3.27-20.57ZM110.9,25H112c4.06,0,5.64,2.86,5.2,5.62a6.66,6.66,0,0,1-6.72,6h-1.42L110.9,25Z"/><path class="cls-1" d="M0,17.71H9.81L11,32.65C17.46,21.42,24.05,10.62,30.7,0h3.2c-7,13.56-14,27.21-20.7,41.08H6L4.24,24.6C3.8,20.51,3,18.77,0,18.33v-.62Z"/><polygon class="cls-2" points="3.71 9.21 12.07 12.75 12.8 22.07 13.42 22.07 21.01 9.22 21.01 8.57 3.71 8.57 3.71 9.21 3.71 9.21"/><path class="cls-1" d="M42.37,55.82a2.08,2.08,0,0,1,1.92,2.59A2.93,2.93,0,0,1,41.63,61a2.09,2.09,0,0,1-1.93-2.59,2.94,2.94,0,0,1,2.67-2.59Zm-4.28-9.9h3.43L40.36,54a5,5,0,0,1,3.52-1.53c2.75,0,4.56,2.65,4.07,5.92s-3.08,5.93-5.83,5.93a3.39,3.39,0,0,1-3-1.64L38.94,64H35.51l2.58-18.08Z"/><polygon class="cls-1" points="48.24 52.77 52.36 52.77 54.2 58.52 57.78 52.77 61.76 52.77 51.32 69.54 47.34 69.54 51.74 62.47 48.24 52.77 48.24 52.77"/><polygon class="cls-1" points="82.22 63.99 85.23 45.91 90.17 45.91 87.15 63.99 82.22 63.99 82.22 63.99"/><path class="cls-1" d="M78.09,45.88c-1.7,4-3.15,8.25-4.9,12.21l-.51-2.38a0,0,0,0,1,0,0l.09.42A11.11,11.11,0,0,0,70.9,52.6l-.06-.08c-.15-.19-.3-.37-.46-.55s-.19-.22-.29-.32a17.67,17.67,0,0,0-4.17-3.33L70.31,64h5.28c2.49-6.1,5.18-12,7.7-18.07Z"/><path class="cls-2" d="M68.78,45.88H60.72v.39c4.64.91,10.5,4.8,12,9.84L71,47.69A2.06,2.06,0,0,0,68.78,45.88Z"/><path class="cls-1" d="M121.76,64.05h-4.51c-.3-.86-.38-1.94-.68-2.79h-6.15l-1.15,2.79h-5.2l6.73-15.48c.3-.68.84-1.61,1.06-2,.34-.63,1.67-.67,2.23-.67h3.73Zm-7.48-13.17-2.51,6.73h4.06Z"/></g></g></svg>