<svg xmlns="http://www.w3.org/2000/svg" viewBox="0 0 38 38"><defs><style>.cls-1,.cls-2{fill:#fff;}.cls-1{stroke:#c6c6c6;}.cls-1,.cls-4{stroke-miterlimit:10;}.cls-3,.cls-4{fill:#830b2c;}.cls-4{stroke:#fff;stroke-width:0.96px;}</style></defs><g id="Layer_2" data-name="Layer 2"><g id="Layer_1-2" data-name="Layer 1"><circle class="cls-1" cx="19" cy="19" r="18.5"/><polygon class="cls-2" points="13.44 30.41 13.46 27.4 17.39 27.4 17.39 14.33 12.93 14.33 12.93 15.25 8.95 15.25 8.95 10.65 29.04 10.65 29.04 15.25 25.33 15.25 25.33 14.33 20.74 14.33 20.74 27.4 24.39 27.4 24.39 30.41 13.44 30.41"/><path class="cls-3" d="M28.59,11.1v3.7H25.77v-.92H20.29v14h3.65V30h-10l0-2.12h3.93v-14H12.48v.92H9.4V11.1H28.59m.9-.89H8.5V15.7h4.87v-.93H17V27H13v3.9H24.83V27H21.18V14.77h3.7v.93h4.61V10.21Z"/><polygon class="cls-4" points="11.59 28.39 19 23.59 26.41 28.39 23.58 20.62 30.99 15.81 21.83 15.81 19 8.04 16.17 15.81 7.01 15.81 14.42 20.62 11.59 28.39"/></g></g></svg>