<?xml version="1.0" encoding="utf-8"?>
<!-- Generator: Adobe Illustrator 24.3.0, SVG Export Plug-In . SVG Version: 6.00 Build 0)  -->
<svg version="1.1" id="Layer_1" xmlns="http://www.w3.org/2000/svg" xmlns:xlink="http://www.w3.org/1999/xlink" x="0px" y="0px"
	 viewBox="0 0 90.1 74.4" style="enable-background:new 0 0 90.1 74.4;" xml:space="preserve">
<style type="text/css">
	.st0{fill:#AD0339;}
	.st1{clip-path:url(#SVGID_2_);}
	.st2{clip-path:url(#SVGID_4_);}
	.st3{clip-path:url(#SVGID_6_);}
	.st4{clip-path:url(#SVGID_8_);}
	.st5{clip-path:url(#SVGID_10_);}
	.st6{fill:#221B1B;}
	.st7{fill:#231C1C;}
	.st8{fill:#231815;}
</style>
<g id="Layer_2_1_">
	<g id="Content">
		<path class="st0" d="M27.8,55.7h-9l-4.3,7L13.8,64h9.7c1.6,0,3.1-0.8,3.9-2.1l3.3-6.1L27.8,55.7L27.8,55.7z"/>
		<g>
			<defs>
				<path id="SVGID_1_" d="M27.8,55.7h-9l-4.3,7L13.8,64h9.7c1.6,0,3.1-0.8,3.9-2.1l3.3-6.1L27.8,55.7L27.8,55.7z"/>
			</defs>
			<clipPath id="SVGID_2_">
				<use xlink:href="#SVGID_1_"  style="overflow:visible;"/>
			</clipPath>
			<g class="st1">
				<rect x="13.8" y="55.7" class="st0" width="16.9" height="8.2"/>
			</g>
		</g>
		<polygon class="st0" points="24.2,0 47.6,38.6 58.3,38.6 35,0 		"/>
		<g>
			<defs>
				<polygon id="SVGID_3_" points="24.2,0 47.6,38.6 58.3,38.6 35,0 				"/>
			</defs>
			<clipPath id="SVGID_4_">
				<use xlink:href="#SVGID_3_"  style="overflow:visible;"/>
			</clipPath>
			<g class="st2">
				<polygon class="st0" points="51.2,-13.2 74.6,30.6 31.3,51.8 7.9,8 				"/>
			</g>
		</g>
		<polygon class="st0" points="6.4,53 6.4,53 11.7,61.9 35,23.2 35,23.2 29.7,14.4 		"/>
		<g>
			<defs>
				<polygon id="SVGID_5_" points="6.4,53 6.4,53 11.7,61.9 35,23.2 35,23.2 29.7,14.4 				"/>
			</defs>
			<clipPath id="SVGID_6_">
				<use xlink:href="#SVGID_5_"  style="overflow:visible;"/>
			</clipPath>
			<g class="st3">
				<polygon class="st0" points="-15.4,49.6 13.8,2.4 56.8,26.7 27.6,73.9 				"/>
			</g>
		</g>
		<path class="st0" d="M38.4,0l23.4,38.6h10.7l-22-36.3c-0.8-1.4-2.4-2.3-4-2.2L38.4,0L38.4,0z"/>
		<g>
			<defs>
				<path id="SVGID_7_" d="M38.4,0l23.4,38.6h10.7l-22-36.3c-0.8-1.4-2.4-2.3-4-2.2L38.4,0L38.4,0z"/>
			</defs>
			<clipPath id="SVGID_8_">
				<use xlink:href="#SVGID_7_"  style="overflow:visible;"/>
			</clipPath>
			<g class="st4">
				<polygon class="st0" points="46.9,52.7 20.9,9.6 63.9,-14.1 89.9,29 				"/>
			</g>
		</g>
		<path class="st0" d="M0.6,39.1c-0.8,1.4-0.8,3.1,0,4.5l4,6.7l23.3-38.7l-5.3-8.9L0.6,39.1z"/>
		<g>
			<defs>
				<path id="SVGID_9_" d="M0.6,39.1c-0.8,1.4-0.8,3.1,0,4.5l4,6.7l23.3-38.7l-5.3-8.9L0.6,39.1z"/>
			</defs>
			<clipPath id="SVGID_10_">
				<use xlink:href="#SVGID_9_"  style="overflow:visible;"/>
			</clipPath>
			<g class="st5">
				<polygon class="st0" points="-21.7,38.4 6.8,-9 49.5,14.5 20.9,61.9 				"/>
			</g>
		</g>
		<path class="st6" d="M35.4,48.8l-0.1,0.4c-0.1,1.5-0.9,2.8-2.1,3.7c-1.4,0.8-3,1.1-4.6,1c-3.7,0-6.4-0.2-5.3-4.9l0.8-3.4
			c1-4.3,3.5-5,7.5-5c3.7,0,5.4,0.4,4.6,4.3l-0.1,0.5h-3.7l0.1-0.5c0.1-1.2-0.7-1.2-1.9-1.2c-2.1,0-2.4,0.6-2.8,2.5l-0.5,2
			c-0.4,2-0.5,2.7,1.7,2.7c1.5,0,2.3-0.1,2.6-1.6l0.1-0.4L35.4,48.8z"/>
		<path class="st6" d="M36.5,49l0.8-3.7c0.9-4,3.7-4.8,7.4-4.8s6.1,0.8,5.2,4.8L49.1,49c-0.9,4-3.7,4.8-7.4,4.8S35.6,53.1,36.5,49
			 M45.5,48.7l0.7-3c0.4-1.9-0.2-2.1-2.1-2.1s-2.6,0.2-3,2.1l-0.7,3c-0.4,2,0.2,2.1,2.1,2.1S45.1,50.6,45.5,48.7"/>
		<polygon class="st6" points="55.7,47.5 55,50.4 50.1,50.4 50.7,47.5 		"/>
		<path class="st6" d="M56.5,49l0.8-3.7c0.9-4,3.7-4.8,7.4-4.8c3.7,0,6.1,0.8,5.2,4.8L69.1,49c-0.9,4-3.7,4.8-7.4,4.8
			C58.1,53.8,55.6,53.1,56.5,49 M65.5,48.7l0.7-3c0.4-1.9-0.2-2.1-2.1-2.1c-1.9,0-2.6,0.2-3,2.1l-0.7,3c-0.4,2,0.2,2.1,2.1,2.1
			C64.4,50.8,65.1,50.6,65.5,48.7"/>
		<path class="st6" d="M69.7,53.8l2.9-13.1h6.9c3.4,0,4.4,1.4,3.6,4.8c-0.8,3.7-1.9,4.9-5.8,4.9h-3.2l-0.7,3.3H69.7z M77.3,47.4
			c1.4,0,1.7-0.2,2.1-1.9c0.3-1.3,0.2-1.8-1.2-1.8h-2.5l-0.8,3.7H77.3z"/>
		<path class="st7" d="M38,59c2.4,0.2,2.9,0.5,2.5,2.3c-0.3,1.3-0.5,2.6-4.2,2.6c-2.1,0-3.5,0-2.9-2.6h2.1c-0.2,0.8,0.1,0.9,1.2,0.9
			s1.4-0.1,1.5-0.7s0-0.7-1-0.7h-0.5c-2-0.1-3.2-0.1-2.7-2.4s1.9-2.4,4-2.4c1.8,0,3.3,0,2.8,2.2l-0.1,0.3h-2.1
			c0.2-0.8-0.2-0.8-1-0.8c-1.2,0-1.3,0.2-1.4,0.7c-0.1,0.6,0.2,0.7,0.7,0.7L38,59z"/>
		<polygon class="st7" points="48.3,63.8 46.1,63.8 46.8,60.7 43.9,60.7 43.3,63.8 41.1,63.8 42.8,55.9 45,55.9 44.3,58.9 
			47.2,58.9 47.9,55.9 50.1,55.9 		"/>
		<path class="st7" d="M51.9,62.4l-0.7,1.3h-2.3l4.2-7.9h3.3l0.8,7.9H55l-0.1-1.3H51.9z M54.5,57.5L54.5,57.5l-1.8,3.4h2L54.5,57.5z
			"/>
		<path class="st7" d="M59.4,55.9h4.2c1.9,0,2.7,0.4,2.3,2.4c-0.3,1.3-0.5,2.1-2.1,2.4v0.1c0.9,0,1.4,0.5,1.2,1.4l-0.4,1.6h-2.2
			l0.2-1.1c0.2-0.6,0-1-0.7-1h-1.7l-0.5,2.1h-2.2L59.4,55.9z M62.4,59.9c0.9,0,1-0.3,1.2-1.2c0.2-0.7,0-0.9-0.7-0.9h-1.7l-0.5,2.1
			L62.4,59.9z"/>
		<polygon class="st7" points="69.1,59.1 72.6,59.1 72.3,60.5 68.8,60.5 68.5,62.1 72.3,62.1 71.9,63.8 65.9,63.8 67.6,55.9 
			73.6,55.9 73.2,57.6 69.4,57.6 		"/>
		<path class="st7" d="M74.9,55.9h4.2c2.3,0,3.1,0.8,2.6,3l-0.4,1.7c-0.5,2.2-1.4,3.2-3.7,3.2h-4.5L74.9,55.9z M75.8,61.9h1.9
			c0.8,0,1.2-0.5,1.4-1.3l0.4-1.6c0.2-1-0.1-1.2-0.8-1.2h-1.9L75.8,61.9z"/>
		<path class="st7" d="M34.9,66.4h4.3c1.6,0,2.5,0.3,2.2,2c-0.2,1-0.6,1.7-1.7,1.8v0.1c1.2,0.1,1.2,0.8,1,1.8
			c-0.4,1.9-1.4,2.2-3.2,2.2h-4.3L34.9,66.4z M35.7,72.6h1.7c0.7,0,1-0.2,1.2-0.8S38.5,71,37.8,71h-1.7L35.7,72.6z M36.4,69.6H38
			c0.8,0,1-0.1,1.1-0.8c0.1-0.5,0.1-0.7-0.5-0.7h-1.9L36.4,69.6z"/>
		<path class="st7" d="M43,66.4h4.2c1.9,0,2.7,0.4,2.3,2.4c-0.3,1.3-0.5,2.1-2.1,2.4v0.1c0.9,0,1.4,0.5,1.2,1.4l-0.4,1.6H46l0.2-1.1
			c0.1-0.6,0-1-0.7-1h-1.7l-0.5,2.1h-2.2L43,66.4z M46,70.4c0.9,0,1-0.3,1.2-1.2c0.2-0.7,0-0.9-0.7-0.9h-1.7l-0.5,2.1L46,70.4z"/>
		<path class="st7" d="M51.6,72.9l-0.7,1.3h-2.3l4.2-7.9h3.3l0.8,7.9h-2.2l-0.1-1.3H51.6z M54.2,68L54.2,68l-1.8,3.4h2L54.2,68z"/>
		<polygon class="st7" points="59.6,74.3 57.5,74.3 59.2,66.4 62.9,66.4 63.9,72.5 64,72.5 65.2,66.4 67.4,66.4 65.7,74.3 
			61.9,74.3 61,68.2 60.9,68.2 		"/>
		<path class="st7" d="M74.6,71.3v0.2c-0.1,0.9-0.5,1.7-1.2,2.2c-0.8,0.5-1.8,0.7-2.7,0.6c-2.2,0-3.8-0.1-3.2-3l0.4-2
			c0.6-2.6,2.1-3,4.5-3s3.3,0.2,2.8,2.6l-0.1,0.3h-2.3l0.1-0.3c0.1-0.7-0.4-0.8-1.2-0.8c-1.2,0-1.5,0.4-1.7,1.5l-0.3,1.2
			c-0.2,1.2-0.3,1.6,1,1.6c0.9,0,1.4-0.1,1.6-1v-0.2L74.6,71.3L74.6,71.3z"/>
		<polygon class="st7" points="82.3,74.3 80.1,74.3 80.8,71.2 77.9,71.2 77.2,74.3 75,74.3 76.8,66.4 79,66.4 78.3,69.4 81.2,69.4 
			81.8,66.4 84,66.4 		"/>
		<path class="st8" d="M84.7,72.4c0-0.7,0.3-0.8,1-0.8s1,0,1,0.7h-0.3c0-0.4-0.1-0.5-0.7-0.5S85,72,85,72.4s0.2,0.4,0.7,0.5
			s1,0,1,0.7s-0.4,0.8-1,0.8s-1-0.1-1-0.8H85c0,0.6,0.1,0.6,0.7,0.6s0.7,0,0.7-0.5s-0.2-0.4-0.7-0.4S84.7,73.1,84.7,72.4"/>
		<polygon class="st8" points="88.8,74.3 88.4,74.3 87.4,71.9 87.4,71.9 87.4,74.3 87.1,74.3 87.1,71.7 87.6,71.7 88.6,73.9 
			89.6,71.7 90.1,71.7 90.1,74.3 89.8,74.3 89.8,71.9 89.8,71.9 		"/>
	</g>
</g>
</svg>
