<svg xmlns="http://www.w3.org/2000/svg" viewBox="0 0 94.13 74.22"><defs><style>.cls-1{fill:#fff;}.cls-2{fill:#003976;}.cls-3{fill:#830b2c;}</style></defs><g id="Layer_2" data-name="Layer 2"><g id="Content"><polygon class="cls-1" points="38.21 46.69 40.16 61.8 40.73 67.73 84.26 25.97 75.38 2.92 73.72 2.56 71.62 2.56 69.55 2.56 67.41 2.79 64.67 3.64 61.93 5.34 58.84 8.53 55.83 11.85 51.93 16.15 47.18 18.17 43.33 17.04 40.45 16.15 38.21 46.69"/><path class="cls-2" d="M39.32,7.13l6.59,42.78a10.06,10.06,0,0,1,.15,3.27c-11-13-20.89,12.74-31.11,6.68L0,0C11.74,9.77,28.85-6.17,39.32,7.13Z"/><path class="cls-3" d="M76.46,1.65,94.13,49.39c-18.67-8.28-27,15-41.51,23.76C46.46,76,42,72.51,41,69.38c-2.15-8.07,6.61-9.68,7-16.76,0-3.66-.88-6.88-1.32-10.21C62.25,45.21,65,18.23,83,25.63L75,4.3a14.8,14.8,0,0,0-6.56-.71c-10,1.59-13.81,18.61-24.79,15.92L43.33,17c11,2.54,14.15-16.85,27-16.31A31.44,31.44,0,0,1,76.46,1.65Z"/><path class="cls-3" d="M45,55.45c-1.88,3.16-2.58,2.72-4.81,6.35,0,0-1.28-10.18-1.28-10.26A7.72,7.72,0,0,1,45,55.45Z"/><polygon class="cls-1" points="29.68 12.83 26.16 22.39 14.78 22.37 23.92 28.52 20.23 38.6 29.63 32.42 39.1 38.71 35.48 28.65 44.71 22.39 33.23 22.39 29.68 12.83 29.68 12.83"/></g></g></svg>