<svg xmlns="http://www.w3.org/2000/svg" viewBox="0 0 76.35 81.45"><defs><style>.cls-1{fill:#182b54;}.cls-2{fill:#41638c;}</style></defs><g id="Layer_2" data-name="Layer 2"><g id="Content"><path class="cls-1" d="M44.38,22s1-.27.29-1.13a6.51,6.51,0,0,0-1.44-1l-.43-.26a2.47,2.47,0,0,0-1.09-1.89V14.17a3.61,3.61,0,0,0,.92-1.28.58.58,0,0,0,0-.87,2.79,2.79,0,0,0-1.31-.82L41,11s-.55-1.28-1.22-1.46c0-1.21.25-2-.3-2.73A1.65,1.65,0,0,1,39.64,5v0l-.54-.79c1-2.56-.48-3.9-.48-3.9L38.38,0s-.14.12-.28.26c-1.51,1.49-.47,3.82-.47,3.82l-.5.81,0,0,0,0a1.63,1.63,0,0,1,.12,1.82c-.55.73-.24,1.52-.3,2.73-.67.18-1.22,1.46-1.22,1.46l-.31.25a2.68,2.68,0,0,0-1.27.81.61.61,0,0,0,0,.86A3.58,3.58,0,0,0,35,14.17v3.52a2.5,2.5,0,0,0-1.09,1.89l-.06,0a4.11,4.11,0,0,0-1.79,1A.83.83,0,0,0,32.25,22c-9.42,4-9.49,12.52-9.49,12.52h0a4.22,4.22,0,0,0-2.41,2.74,7.79,7.79,0,0,0-1.39,1,1.43,1.43,0,0,0,.64,2.2v5.39a12.2,12.2,0,0,0-3.81,2.73,1.64,1.64,0,0,0,.56,2.77v5.8a.62.62,0,0,0,0,.09v1a2.67,2.67,0,0,1-.63,1.49c-.23.13-.43.27-.63.41H1a1.07,1.07,0,0,0-1,1.2A1,1,0,0,0,1,62.4H75.42c.63,0,.93-.53.93-1.17s-.3-1.12-.93-1.12H61.94l-.16,0a2.8,2.8,0,0,1-.62-.37,2.39,2.39,0,0,1-.7-1.29v-7c.22,0,2.09-.42.58-2.79a11.21,11.21,0,0,0-3.9-2.79V40.32a1.28,1.28,0,0,0,.56-2,7.68,7.68,0,0,0-1.13-.87,4.21,4.21,0,0,0-2.5-2.91L54,34.44c0-.81-.55-8.7-9.58-12.5ZM23.71,48.43A1.62,1.62,0,0,1,25.12,47a1.18,1.18,0,0,1,1.42,1V57c-1,.11-1.93.23-2.83.37v-9m9.21-12.16a1.4,1.4,0,0,1,1.52,1.25c0,.33,0,4.36,0,5.48-.92,0-1.92.11-2.94.19V37.62a1.45,1.45,0,0,1,1.42-1.35m12.44,1.34c0,.31,0,4.58,0,5.57L42.52,43V37.37a1.31,1.31,0,0,1,1.42-1.1,1.47,1.47,0,0,1,1.42,1.34M29,47.47a1.44,1.44,0,0,1,1.42-1.21,1.18,1.18,0,0,1,1.42,1v9.37c-1,0-1.91.11-2.83.18,0-2.16,0-9,0-9.32m9.46-11.39a1.28,1.28,0,0,1,1.42,1.08c0,.33,0,5.13,0,5.71l-1.43,0h-.08l-1.32,0V37.18a1.32,1.32,0,0,1,1.42-1.1M53.16,57.46c-.89-.14-1.84-.27-2.82-.38V47.94a1.18,1.18,0,0,1,1.42-1,1.62,1.62,0,0,1,1.41,1.46c0,.29,0,6.87,0,9M45,56.64v-9.4a1.18,1.18,0,0,1,1.42-1,1.44,1.44,0,0,1,1.42,1.21c0,.3,0,7.26,0,9.37-.92-.08-1.86-.15-2.83-.2m-5.33-.16V46.85a1.3,1.3,0,0,1,1.14-1.08l.68,0a1.21,1.21,0,0,1,1,1c0,.32,0,8.15,0,9.7-.93,0-1.87-.05-2.83-.05m-5.32,0V46.85a1.31,1.31,0,0,1,1.42-1.1,1.29,1.29,0,0,1,1.41,1.08v9.64c-1,0-1.91,0-2.83.05M55.8,57.94V49.29s.11-.83,1.28-.72A1.57,1.57,0,0,1,58.36,50c0,.28,0,6,0,8.55-.77-.23-1.63-.44-2.55-.64M50.54,38.37v5.42c-.77-.14-1.68-.26-2.64-.37V37.89A1,1,0,0,1,49.22,37a1.55,1.55,0,0,1,1.32,1.33M27.7,37a1,1,0,0,1,1.32.85v5.54c-1,.11-1.87.24-2.64.39V38.37A1.55,1.55,0,0,1,27.7,37M18.56,50c0-.38.37-1.39,1.24-1.46,1.13-.11,1.24.72,1.24.72v8.58c-.9.2-1.72.41-2.47.64,0-2.54,0-8.21,0-8.48M53,44.36V39.23a1,1,0,0,1,1.23-.84A1.77,1.77,0,0,1,55.48,40c0,.3,0,4,0,5.14-.85-.3-1.68-.55-2.45-.75M21.44,40a1.77,1.77,0,0,1,1.23-1.58,1,1,0,0,1,1.23.84v5.15c-.77.2-1.6.44-2.45.74,0-1.18,0-4.85,0-5.15"/><path class="cls-2" d="M15.12,60.11H61.94s-4.88-3.63-23.53-3.63C18.94,56.48,15.12,60.11,15.12,60.11Z"/><path class="cls-2" d="M60.46,51.38s1.24-.2,1.17-1.22c0-.57-1.47-7.22-23.27-7.29-19.35-.06-23.14,5.77-23.14,7,0,.81,1.16,1.48,1.16,1.48s.58-5.9,22-6C46.81,45.38,59.73,46.91,60.46,51.38Z"/><path class="cls-2" d="M57.12,40.31a1.06,1.06,0,0,0,.9-1.16c0-.56.78-5.26-19.59-5.26-19.36,0-19.85,4.81-19.85,5.25,0,.81,1.1,1.37,1.1,1.37s-2.79-4.7,18.66-4.78C57.7,35.73,57.12,40.31,57.12,40.31Z"/><path class="cls-2" d="M44.38,22a.58.58,0,0,0,.49-.84c-.09-.29-.35-.53-.93-.91s-1.17-1.17-5.54-1.17c-5.47,0-6.55,1.5-6.59,2-.06.81.45.9.45.9s1.93-1,6.19-1A14.4,14.4,0,0,1,44.38,22Z"/><path class="cls-2" d="M41.71,14.13a3.12,3.12,0,0,0,.93-1.3c0-.14.22.06.15-.44s-.94-1.46-4.37-1.51S34,11.85,34,12.5a1.08,1.08,0,0,0,.18.5A4.9,4.9,0,0,0,35,14.18s-.12-.34,3.36-.34C41.64,13.84,41.71,14.13,41.71,14.13Z"/><polygon class="cls-1" points="12.18 75.08 6.22 65.22 2.54 65.22 2.54 81.17 5.97 81.17 5.97 71.14 12.05 81.17 15.61 81.17 15.61 65.22 12.18 65.22 12.18 75.08"/><path class="cls-1" d="M22.76,65.22,17,81.17h3.84l1-3.24h5.31l1.05,3.24h3.9l-5.72-16Zm0,9.74,1.65-5.09L26.14,75Z"/><polygon class="cls-1" points="33.4 65.46 33.4 81.17 36.96 81.17 36.96 74.72 42.8 74.72 42.8 71.5 36.96 71.5 36.96 68.45 42.95 68.45 42.95 65.22 33.4 65.22 33.4 65.46"/><path class="cls-1" d="M55.08,75.66a3.45,3.45,0,0,1-3.23,2.57c-2.37,0-3.86-1.81-3.88-5,0-2.81,1.47-5,3.8-5A3.29,3.29,0,0,1,55.12,71l0,.2.2,0L58.74,71l-.06-.26a6.59,6.59,0,0,0-7-5.76c-4.4,0-7.43,3.49-7.44,8.25a8.72,8.72,0,0,0,2.09,6.12,7.14,7.14,0,0,0,5.35,2.14h0c3.25,0,5.87-1.9,7-5.43l.08-.28-3.64-.26Z"/><path class="cls-1" d="M70.11,65.22v9.31c0,2.51-1,3.67-3.12,3.7S63.9,77,63.87,74.53V65.22H60.32v9.29a6.69,6.69,0,1,0,13.34,0V65.22Z"/><polyline class="cls-1" points="32.26 21.98 32.22 22.05 32.28 22.03 32.26 21.98"/></g></g></svg>